<?xml version="1.0" standalone="no"?><!DOCTYPE svg PUBLIC "-//W3C//DTD SVG 1.1//EN" "http://www.w3.org/Graphics/SVG/1.1/DTD/svg11.dtd"><svg width="100%" height="100%" viewBox="0 0 11000 8500" version="1.1" xmlns="http://www.w3.org/2000/svg" xmlns:xlink="http://www.w3.org/1999/xlink" xml:space="preserve" style="fill-rule:evenodd;clip-rule:evenodd;stroke-linejoin:round;stroke-miterlimit:1.41421;"><g id="Layer_x0020_1"><g id="_296537872_"><path d="M5608.11,251.66c2162.16,0 3891.89,1755.66 3891.89,3909.5c0,2171.95 -1747.75,3909.5 -3891.89,3909.5c-2018.02,0 -3675.68,-1538.46 -3873.87,-3493.21l90.09,0c216.217,1918.55 1819.82,3420.82 3801.8,3420.82c2108.11,0 3819.82,-1719.46 3819.82,-3837.1c0,-2117.65 -1711.71,-3837.1 -3819.82,-3837.1c-594.594,0 -1171.17,144.796 -1675.68,380.09l0,-90.498c504.505,-235.294 1063.06,-380.09 1675.68,-380.09l-18.018,18.1Z" style="fill:#b3b3b3;"/><g><path d="M3968.47,686.049c18.018,0 36.037,18.099 36.037,36.199c378.378,1719.46 1279.28,3167.42 2684.68,4217.19c432.433,325.792 900.901,597.285 1387.39,814.48c144.144,72.398 288.288,126.697 450.45,180.995c54.054,18.1 108.108,36.2 162.162,54.299c18.018,0 36.036,36.199 36.036,54.299c0,18.099 -36.036,36.199 -54.054,36.199c-54.054,-18.1 -126.126,-36.199 -180.18,-54.299c-144.144,-54.298 -306.306,-108.597 -450.45,-180.995c-504.505,-217.195 -972.973,-506.788 -1405.41,-832.579c-1351.35,-1013.58 -2252.25,-2389.14 -2666.67,-4000c0,36.199 0,90.497 -18.018,126.696c-36.036,325.792 -108.108,651.584 -198.198,977.376c-108.108,343.891 -252.252,669.683 -450.45,959.276c-54.054,723.982 -18.018,1447.96 162.162,2135.75c216.216,941.176 648.649,1791.86 1207.21,2552.04c18.018,18.099 18.018,36.199 0,54.298c-18.018,18.1 -36.036,18.1 -54.054,0c-576.576,-778.28 -1009.01,-1647.06 -1225.23,-2588.24c-162.162,-669.683 -216.216,-1339.37 -162.162,-2027.15c-342.343,506.787 -792.793,904.977 -1333.33,1230.77c-18.018,18.1 -36.036,0 -54.054,-18.1c-18.018,-18.099 0,-36.199 18.018,-54.298c576.577,-343.892 1045.05,-796.38 1387.39,-1321.27c0,-18.1 0,-54.299 0,-72.398c54.054,-542.987 162.162,-1085.97 342.342,-1610.86c54.054,-162.896 108.108,-307.692 180.18,-452.489c18.018,-54.298 54.054,-108.597 72.072,-162.896c18.018,-18.099 36.036,-36.199 54.054,-18.099c0,-18.1 18.018,-36.199 36.036,-36.199l36.036,0ZM3355.86,2876.09c144.144,-253.394 252.252,-506.787 342.342,-796.38c108.108,-307.692 162.162,-633.484 198.198,-959.276c18.018,-90.498 18.018,-199.095 18.018,-289.593c0,-18.099 0,-36.199 0,-54.299c-18.018,54.299 -54.054,90.498 -72.072,144.797c-72.072,144.796 -126.126,289.593 -180.18,452.488c-162.162,488.688 -270.27,995.476 -324.324,1502.26l18.018,0ZM3842.34,740.347c-36.036,18.1 -72.072,36.199 -90.09,54.299c-90.09,54.299 -162.162,108.597 -234.234,162.896c-270.27,199.095 -504.504,434.389 -720.721,669.683c-288.288,343.892 -540.54,723.982 -702.702,1158.37c-216.217,524.887 -306.307,1067.87 -288.289,1647.06c0,18.1 -18.018,36.199 -36.036,36.199c-18.018,0 -36.036,-18.099 -36.036,-36.199c-18.018,-579.185 72.072,-1140.27 288.289,-1665.16c180.18,-434.389 414.414,-814.48 720.72,-1176.47c216.216,-253.394 468.469,-488.688 738.739,-687.783c72.072,-54.298 162.162,-126.697 252.252,-162.896c36.036,-18.099 72.072,-36.199 90.09,-54.298c18.018,-18.1 36.036,0 54.054,18.099c18.018,18.1 0,36.199 -18.018,54.299l-18.018,-18.1ZM8274.77,1627.23c-36.036,18.1 -90.09,18.1 -126.126,36.199c-108.108,18.1 -216.217,54.299 -324.325,72.398c-360.36,54.299 -738.738,90.498 -1099.1,90.498c-1027.03,-18.099 -2000,-325.792 -2702.7,-1122.17c-18.018,-18.099 -18.018,-36.199 0,-54.298c18.018,-18.1 36.036,-18.1 54.054,0c684.684,760.181 1639.64,1067.87 2630.63,1085.97c360.361,0 720.721,-18.099 1081.08,-90.497c108.108,-18.1 216.217,-36.199 324.325,-72.398c36.036,-18.1 90.09,-18.1 126.126,-36.2c18.018,0 36.036,0 54.054,36.2c0,18.099 0,36.199 -36.036,54.298l18.018,0Z" style="fill:#373435;"/><ellipse cx="3968.47" cy="649.85" rx="270.27" ry="271.493" style="fill:#fc0;"/><ellipse cx="8436.94" cy="1518.63" rx="270.27" ry="271.493" style="fill:#fc0;"/><ellipse cx="8941.44" cy="6115.91" rx="270.27" ry="271.493" style="fill:#fc0;"/><ellipse cx="4761.26" cy="7962.07" rx="270.27" ry="271.493" style="fill:#fc0;"/><ellipse cx="1770.27" cy="4523.15" rx="270.27" ry="271.493" style="fill:#fc0;"/></g></g></g></svg>